<svg width="40" height="40" viewBox="0 0 40 40" fill="none" xmlns="http://www.w3.org/2000/svg">
<path fill-rule="evenodd" clip-rule="evenodd" d="M22.6293 4.80747C21.1772 3.35535 18.8227 3.35535 17.3707 4.80747L16.1221 6.05605L19.0369 8.97078C19.3441 8.88864 19.6668 8.84484 20 8.84484C22.0536 8.84484 23.7184 10.5096 23.7184 12.5632C23.7184 12.8963 23.6745 13.2192 23.5925 13.5264L27.4033 17.3371C27.7104 17.2551 28.0332 17.2112 28.3663 17.2112C30.42 17.2112 32.0847 18.8759 32.0847 20.9296C32.0847 22.9832 30.42 24.648 28.3663 24.648C26.3127 24.648 24.648 22.9832 24.648 20.9296C24.648 20.5964 24.6918 20.2737 24.7738 19.9665L21.8592 17.0517V26.0751C22.9706 26.718 23.7184 27.9196 23.7184 29.2959C23.7184 31.3496 22.0536 33.0143 20 33.0143C17.9463 33.0143 16.2816 31.3496 16.2816 29.2959C16.2816 27.9196 17.0294 26.718 18.1408 26.0751V15.7842C17.0294 15.1412 16.2816 13.9395 16.2816 12.5632C16.2816 12.2301 16.3255 11.9073 16.4075 11.6001L13.4928 8.68534L4.80747 17.3707C3.35535 18.8227 3.35535 21.1772 4.80747 22.6293L17.3707 35.1925C18.8227 36.6446 21.1772 36.6446 22.6293 35.1925L35.1925 22.6293C36.6446 21.1772 36.6446 18.8227 35.1925 17.3707L22.6293 4.80747ZM14.7414 2.17817C17.6457 -0.726063 22.3543 -0.726056 25.2585 2.17819L37.8218 14.7414C40.7261 17.6457 40.7261 22.3543 37.8218 25.2585L25.2585 37.8218C22.3543 40.7261 17.6457 40.7261 14.7414 37.8218L2.17817 25.2585C-0.726063 22.3543 -0.726056 17.6457 2.17819 14.7414L14.7414 2.17817Z" fill="#986DFF"/>
</svg>
