<svg width="44" height="44" viewBox="0 0 44 44" fill="none" xmlns="http://www.w3.org/2000/svg">
<path d="M7.18973 5.58016C7.3042 3.77664 7.78789 2.99237 9.17497 2.36257C10.6675 1.68472 13.0214 2.00017 15.7913 3.24946C16.9843 3.78781 17.1058 3.79877 19.1967 3.56001C21.9758 3.24253 25.5537 3.24365 28.1188 3.56291C30.0586 3.80436 30.186 3.79229 31.3819 3.25282C35.3136 1.47948 38.4177 1.59551 39.5417 3.55777C40.1027 4.53722 40.2069 7.07872 39.7719 9.1749C39.5307 10.337 39.5562 10.4821 40.1373 11.2447C44.2255 16.6105 41.2798 25.3083 34.2745 28.5542C33.7384 28.8026 33.2867 28.9563 32.9185 29.0815C31.788 29.466 31.4448 29.5828 31.8604 31.3525C32.0605 32.2038 32.3015 34.3202 32.3962 36.056C32.5674 39.1935 32.5649 39.2154 31.9471 39.8555C31.1061 40.7262 29.894 40.7409 29.0728 39.8903C28.5371 39.3357 28.4848 39.0737 28.4848 36.9337C28.4848 33.7712 28.0956 31.6691 27.176 29.8678C26.0825 27.7243 26.8931 26.925 29.394 26.446C32.87 25.78 35.5849 23.8693 37.0981 21.024C38.5368 18.3193 38.7536 14.5816 36.1526 12.3084C35.4129 11.5255 35.3614 10.8163 35.8896 8.67791C36.0869 7.87867 36.2524 6.84756 36.2573 6.38634C36.2648 5.65795 36.1903 5.54796 35.6881 5.54796C35.3702 5.54796 34.1558 5.95978 32.9897 6.46302L31.1285 7.26649C30.9593 7.33951 30.77 7.3676 30.5832 7.34851C25.8507 6.86468 21.3539 6.85721 16.5982 7.3504C16.4107 7.36984 16.2206 7.34175 16.0508 7.26836L14.1906 6.46437C13.0244 5.96022 11.81 5.54796 11.4923 5.54796C10.7576 5.54796 10.7465 6.03109 11.4162 8.90147C11.8253 10.6545 12.1006 11.0451 10.918 12.4468C9.14535 14.5479 8.70256 17.1569 9.65314 19.8982C10.8512 23.3526 13.785 25.6863 17.9096 26.4649C20.396 26.9343 21.0458 27.5467 20.0964 30.0862C19.349 32.0846 18.8765 32.5997 17.7903 32.5997C16.329 32.5997 15.4135 31.4721 15.9173 30.2922C16.1392 29.7722 16.0732 29.7167 14.7042 29.272C10.5251 27.9149 7.32879 24.8732 5.86742 20.8624C4.73788 17.7626 5.23488 13.7279 7.04692 11.2892C7.66389 10.4588 7.67344 10.3884 7.38552 8.79886C7.22262 7.89901 7.13451 6.45073 7.18973 5.58016Z" fill="#986DFF" stroke="#986DFF" stroke-width="2.66667"/>
<path d="M5.16719 30.1552C4.63761 29.3837 3.56433 29.1752 2.76995 29.6896C1.9756 30.2039 1.76093 31.2464 2.29051 32.0179C2.68148 32.5876 3.14921 33.0555 3.5464 33.4412C3.61963 33.5124 3.69078 33.581 3.76026 33.648C4.09298 33.969 4.38675 34.2525 4.68179 34.5889C5.33439 35.3329 5.98542 36.3349 6.35542 38.1318C6.52024 38.9321 7.11257 39.3633 7.44077 39.5517C7.7967 39.7559 8.1856 39.8762 8.50563 39.9547C9.1603 40.115 9.95502 40.1983 10.7092 40.2468C11.5372 40.3002 12.4343 40.3175 13.2366 40.3222C13.2371 41.2488 14.0109 42 14.9652 42C15.9199 42 16.6939 41.2483 16.6939 40.321V38.642C16.6939 37.7147 15.9199 36.963 14.9652 36.963C14.8022 36.963 14.6259 36.9635 14.4392 36.9642C13.4247 36.9672 12.1024 36.9711 10.9377 36.8962C10.3762 36.8601 9.9145 36.8089 9.57595 36.7463C9.05462 34.7585 8.2124 33.436 7.31368 32.4113C6.9164 31.9584 6.50501 31.5622 6.17039 31.2398C6.10774 31.1796 6.04779 31.1218 5.99111 31.0667C5.60501 30.6918 5.35245 30.4252 5.16719 30.1552Z" fill="#986DFF" stroke="#986DFF" stroke-width="2.66667"/>
</svg>
