<svg width="40" height="40" viewBox="0 0 40 40" fill="none" xmlns="http://www.w3.org/2000/svg">
<path d="M40 11.5357V28.4526C40 29.5504 39.3339 30.5727 38.2636 31.1252L21.7358 39.5883C21.2072 39.8603 20.6076 40 19.9953 40C19.3917 40 18.7905 39.8603 18.2618 39.5883L12.7433 36.6928C11.9201 36.2852 12.3218 36.1403 12.5939 36.0566C13.6932 35.7183 13.9155 35.6403 15.0891 35.0497C15.2115 34.9876 15.3729 35.0119 15.4992 35.0766L19.7388 37.309C19.8924 37.3858 20.1095 37.3858 20.2508 37.309L36.7799 28.8482C36.9339 28.7702 37.0326 28.6147 37.0326 28.4527V11.5357C37.0326 11.37 36.9339 11.2152 36.7761 11.1316L20.2537 2.67834C20.1014 2.59928 19.898 2.59928 19.7446 2.67834L3.22598 11.1339C3.06551 11.2153 2.96427 11.3749 2.96427 11.5357V28.4526C2.96427 28.6146 3.06542 28.7664 3.22501 28.8432L7.75301 31.1645C10.2094 32.2528 11.714 30.9699 11.714 29.6806V12.9792C11.714 12.743 11.9279 12.5568 12.1941 12.5568H14.2901C14.5522 12.5568 14.7693 12.7429 14.7693 12.9792V29.6807C14.7693 32.5884 12.9832 34.2564 9.87477 34.2564C8.92008 34.2564 8.16707 34.2564 6.06711 33.3395L1.73339 31.1252C0.662443 30.5777 0 29.5505 0 28.4526V11.5357C0 10.4365 0.662443 9.41047 1.73339 8.8637L18.2619 0.393405C19.3079 -0.131135 20.6988 -0.131135 21.7358 0.393405L38.2636 8.8637C39.3339 9.41274 40 10.4365 40 11.5357ZM25.7525 26.8389C20.8201 26.8389 19.7349 25.7392 19.3713 23.5641C19.3292 23.3319 19.1049 23.159 18.8362 23.159H16.4259C16.1274 23.159 15.8879 23.3706 15.8879 23.6368C15.8879 26.4203 17.5962 29.7402 25.7525 29.7402C31.6581 29.7402 35.0443 27.6784 35.0443 24.0773C35.0443 20.5061 32.3233 19.556 26.5963 18.8836C20.8079 18.2043 20.2197 17.8545 20.2197 16.652C20.2197 15.661 20.7177 14.3365 25.0051 14.3365C28.8336 14.3365 30.2451 15.0683 30.8255 17.3562C30.8766 17.5718 31.0976 17.7291 31.3483 17.7291H33.7676C33.9176 17.7291 34.0602 17.672 34.1621 17.5771C34.2643 17.4769 34.3186 17.3464 34.3043 17.2095C33.93 13.2661 30.9755 11.4292 25.005 11.4292C19.6906 11.4292 16.521 13.4185 16.521 16.7522C16.521 20.37 19.6747 21.3706 24.774 21.817C30.8766 22.3479 31.3502 23.1385 31.3502 24.2035C31.3502 26.0508 29.679 26.8389 25.7525 26.8389Z" fill="#986DFF"/>
</svg>
