<svg width="314" height="378" viewBox="0 0 314 378" fill="none" xmlns="http://www.w3.org/2000/svg">
<path d="M0 378V372.727L11.0727 368.509C18.4545 365.697 23.0242 362.358 24.7818 358.491C26.8909 354.273 27.9455 348.648 27.9455 341.618V66.3818C27.9455 59.3515 26.8909 53.7273 24.7818 49.5091C22.6727 45.2909 18.103 41.9515 11.0727 39.4909L0 35.2727V30H134.455V35.2727L124.964 39.4909C118.285 41.9515 113.715 45.4667 111.255 50.0364C108.794 54.2545 107.564 59.8788 107.564 66.9091V367.455H188.764C201.77 367.455 211.261 364.291 217.236 357.964C223.564 351.636 229.539 342.497 235.164 330.545L255.727 286.255H261L256.255 378H0Z" fill="#755F9A"/>
<path d="M123 254V250.152L131.103 247.073C136.505 245.02 139.849 242.583 141.135 239.761C142.679 236.682 143.451 232.577 143.451 227.445V26.5545C143.451 21.4235 142.679 17.3182 141.135 14.2394C139.592 11.1606 136.248 8.72346 131.103 6.92727L123 3.84849V0H221.394V3.84849L214.448 6.92727C209.561 8.72346 206.217 11.2887 204.416 14.6242C202.615 17.703 201.715 21.8083 201.715 26.9394V246.303H261.137C270.655 246.303 277.601 243.994 281.974 239.376C286.604 234.758 290.977 228.087 295.093 219.364L310.141 187.036H314L310.527 254H123Z" fill="#755F9A"/>
</svg>
