<svg width="274" height="88" viewBox="0 0 274 88" fill="none" xmlns="http://www.w3.org/2000/svg">
<path d="M1.056 65.6191V65.1391L2.064 64.7551C2.736 64.4991 3.152 64.1951 3.312 63.8431C3.504 63.4591 3.6 62.9471 3.6 62.3071V37.2511C3.6 36.6111 3.504 36.0991 3.312 35.7151C3.12 35.3311 2.704 35.0271 2.064 34.8031L1.056 34.4191V33.9391H13.296V34.4191L12.432 34.8031C11.824 35.0271 11.408 35.3471 11.184 35.7631C10.96 36.1471 10.848 36.6591 10.848 37.2991V64.6591H18.24C19.424 64.6591 20.288 64.3711 20.832 63.7951C21.408 63.2191 21.952 62.3871 22.464 61.2991L24.336 57.2671H24.816L24.384 65.6191H1.056ZM34.773 66.3391C33.525 66.3391 32.373 66.0991 31.317 65.6191C30.293 65.1391 29.477 64.3711 28.869 63.3151C28.293 62.2271 28.021 60.8031 28.053 59.0431L28.197 46.7071C28.197 45.9711 28.069 45.4431 27.813 45.1231C27.557 44.8031 27.157 44.5791 26.613 44.4511L26.037 44.2591V43.7791L34.629 42.0991L35.109 42.5791L34.869 49.3951V60.9631C34.869 61.9871 35.157 62.7391 35.733 63.2191C36.341 63.6991 37.093 63.9391 37.989 63.9391C38.885 63.9391 39.685 63.8111 40.389 63.5551C41.093 63.2991 41.797 62.9151 42.501 62.4031L42.693 46.7551C42.693 46.0191 42.581 45.5071 42.357 45.2191C42.133 44.8991 41.717 44.6751 41.109 44.5471L40.629 44.4031V43.9231L49.029 42.0991L49.509 42.5791L49.365 49.3951V62.4031C49.365 63.1071 49.461 63.6511 49.653 64.0351C49.845 64.4191 50.261 64.7391 50.901 64.9951L51.381 65.1391V65.6191L42.981 66.0991L42.549 63.2671C41.493 64.1311 40.341 64.8671 39.093 65.4751C37.877 66.0511 36.437 66.3391 34.773 66.3391ZM59.0794 39.3151C57.9914 39.3151 57.0634 38.9791 56.2954 38.3071C55.5594 37.6031 55.1914 36.7231 55.1914 35.6671C55.1914 34.5791 55.5594 33.6991 56.2954 33.0271C57.0634 32.3551 57.9914 32.0191 59.0794 32.0191C60.1674 32.0191 61.0794 32.3551 61.8154 33.0271C62.5514 33.6991 62.9194 34.5791 62.9194 35.6671C62.9194 36.7231 62.5514 37.6031 61.8154 38.3071C61.0794 38.9791 60.1674 39.3151 59.0794 39.3151ZM53.4154 65.6191V65.1391L54.0874 64.9471C54.7274 64.7551 55.1594 64.4671 55.3834 64.0831C55.6394 63.6991 55.7674 63.1871 55.7674 62.5471V47.5231C55.7674 46.8511 55.6394 46.3551 55.3834 46.0351C55.1594 45.6831 54.7274 45.4431 54.0874 45.3151L53.4154 45.1711V44.6911L62.1994 41.8591L62.6794 42.3391L62.5354 49.1551V62.5951C62.5354 63.2351 62.6474 63.7471 62.8714 64.1311C63.1274 64.5151 63.5594 64.8031 64.1674 64.9951L64.6474 65.1391V65.6191H53.4154ZM75.0765 66.3391C73.5085 66.3391 72.1005 66.1471 70.8525 65.7631C69.6045 65.4111 68.4525 64.9631 67.3965 64.4191L67.4445 58.7071H67.9245L69.5565 61.5871C70.2605 62.8671 71.0285 63.8271 71.8605 64.4671C72.7245 65.0751 73.8125 65.3791 75.1245 65.3791C76.6605 65.3791 77.8925 65.0431 78.8205 64.3711C79.7805 63.6671 80.2605 62.7391 80.2605 61.5871C80.2605 60.5311 79.9245 59.6671 79.2525 58.9951C78.5805 58.3231 77.3325 57.7151 75.5085 57.1711L73.4925 56.5471C71.5405 55.9711 70.0045 55.0751 68.8845 53.8591C67.7645 52.6431 67.2045 51.1551 67.2045 49.3951C67.2045 47.2831 68.0365 45.4911 69.7005 44.0191C71.3645 42.5471 73.7485 41.8111 76.8525 41.8111C78.1005 41.8111 79.2685 41.9551 80.3565 42.2431C81.4765 42.4991 82.5485 42.8991 83.5725 43.4431L83.2845 48.6271H82.8045L81.1245 45.6511C80.5165 44.5951 79.9085 43.8591 79.3005 43.4431C78.7245 42.9951 77.8445 42.7711 76.6605 42.7711C75.5725 42.7711 74.5485 43.0751 73.5885 43.6831C72.6285 44.2911 72.1485 45.1551 72.1485 46.2751C72.1485 47.3631 72.5485 48.2271 73.3485 48.8671C74.1805 49.5071 75.3965 50.0991 76.9965 50.6431L79.1565 51.2671C81.4605 51.9711 83.1085 52.9471 84.1005 54.1951C85.0925 55.4111 85.5885 56.8831 85.5885 58.6111C85.5885 60.9471 84.6605 62.8191 82.8045 64.2271C80.9805 65.6351 78.4045 66.3391 75.0765 66.3391ZM140.04 65.6191V65.1391L141.048 64.7551C141.72 64.4991 142.136 64.1951 142.296 63.8431C142.488 63.4591 142.584 62.9471 142.584 62.3071V37.2511C142.584 36.6111 142.488 36.0991 142.296 35.7151C142.104 35.3311 141.688 35.0271 141.048 34.8031L140.04 34.4191V33.9391H152.28V34.4191L151.416 34.8031C150.808 35.0271 150.392 35.3471 150.168 35.7631C149.944 36.1471 149.832 36.6591 149.832 37.2991V64.6591H157.224C158.408 64.6591 159.272 64.3711 159.816 63.7951C160.392 63.2191 160.936 62.3871 161.448 61.2991L163.32 57.2671H163.8L163.368 65.6191H140.04ZM173.757 66.3391C172.509 66.3391 171.357 66.0991 170.301 65.6191C169.277 65.1391 168.461 64.3711 167.853 63.3151C167.277 62.2271 167.005 60.8031 167.037 59.0431L167.181 46.7071C167.181 45.9711 167.053 45.4431 166.797 45.1231C166.541 44.8031 166.141 44.5791 165.597 44.4511L165.021 44.2591V43.7791L173.613 42.0991L174.093 42.5791L173.853 49.3951V60.9631C173.853 61.9871 174.141 62.7391 174.717 63.2191C175.325 63.6991 176.077 63.9391 176.973 63.9391C177.869 63.9391 178.669 63.8111 179.373 63.5551C180.077 63.2991 180.781 62.9151 181.485 62.4031L181.677 46.7551C181.677 46.0191 181.565 45.5071 181.341 45.2191C181.117 44.8991 180.701 44.6751 180.093 44.5471L179.613 44.4031V43.9231L188.013 42.0991L188.493 42.5791L188.349 49.3951V62.4031C188.349 63.1071 188.445 63.6511 188.637 64.0351C188.829 64.4191 189.245 64.7391 189.885 64.9951L190.365 65.1391V65.6191L181.965 66.0991L181.533 63.2671C180.477 64.1311 179.325 64.8671 178.077 65.4751C176.861 66.0511 175.421 66.3391 173.757 66.3391ZM192.304 65.6191V65.1391L192.976 64.9471C194.096 64.6271 194.656 63.8431 194.656 62.5951V47.5711C194.656 46.8671 194.544 46.3551 194.32 46.0351C194.096 45.6831 193.664 45.4431 193.024 45.3151L192.304 45.1231V44.6431L200.512 41.8591L200.992 42.3391L201.376 45.2191C202.496 44.2271 203.76 43.4111 205.168 42.7711C206.576 42.1311 207.968 41.8111 209.344 41.8111C211.456 41.8111 213.072 42.3871 214.192 43.5391C215.344 44.6911 215.92 46.4511 215.92 48.8191V62.6431C215.92 63.8911 216.528 64.6751 217.744 64.9951L218.176 65.1391V65.6191H206.848V65.1391L207.472 64.9471C208.592 64.5951 209.152 63.8111 209.152 62.5951V47.2831C209.152 45.2351 208.128 44.2111 206.08 44.2111C204.672 44.2111 203.136 44.9151 201.472 46.3231V62.6431C201.472 63.8911 202.032 64.6751 203.152 64.9951L203.584 65.1391V65.6191H192.304ZM226.781 66.3391C224.925 66.3391 223.357 65.8111 222.077 64.7551C220.829 63.6991 220.205 62.1791 220.205 60.1951C220.205 58.6911 220.973 57.3151 222.509 56.0671C224.045 54.7871 226.461 53.8271 229.757 53.1871C230.269 53.0911 230.845 52.9951 231.484 52.8991C232.125 52.7711 232.797 52.6431 233.501 52.5151V48.7231C233.501 46.5471 233.229 45.0271 232.685 44.1631C232.173 43.2671 231.357 42.8191 230.237 42.8191C229.469 42.8191 228.861 43.0751 228.413 43.5871C227.965 44.0671 227.677 44.9151 227.549 46.1311L227.453 46.6591C227.389 48.0351 227.053 49.0431 226.445 49.6831C225.837 50.3231 225.085 50.6431 224.189 50.6431C223.357 50.6431 222.669 50.3871 222.125 49.8751C221.581 49.3631 221.309 48.6751 221.309 47.8111C221.309 46.4991 221.757 45.3951 222.653 44.4991C223.581 43.6031 224.797 42.9311 226.301 42.4831C227.805 42.0351 229.437 41.8111 231.197 41.8111C234.045 41.8111 236.237 42.5151 237.773 43.9231C239.341 45.2991 240.125 47.5551 240.125 50.6911V61.2991C240.125 62.7391 240.797 63.4591 242.141 63.4591H243.197L243.629 63.8431C243.021 64.6111 242.349 65.2031 241.613 65.6191C240.909 66.0351 239.901 66.2431 238.589 66.2431C237.181 66.2431 236.061 65.9231 235.229 65.2831C234.429 64.6111 233.901 63.7311 233.645 62.6431C232.685 63.6671 231.693 64.5471 230.669 65.2831C229.677 65.9871 228.381 66.3391 226.781 66.3391ZM229.709 63.4111C230.349 63.4111 230.941 63.2671 231.484 62.9791C232.061 62.6591 232.733 62.1791 233.501 61.5391V53.4751C233.181 53.5391 232.861 53.6031 232.541 53.6671C232.221 53.7311 231.853 53.7951 231.437 53.8591C229.965 54.2431 228.781 54.8991 227.885 55.8271C227.021 56.7231 226.589 57.9391 226.589 59.4751C226.589 60.7871 226.893 61.7791 227.501 62.4511C228.109 63.0911 228.845 63.4111 229.709 63.4111Z" fill="white"/>
<path d="M90.65 78V77.25L92.225 76.65C93.275 76.25 93.925 75.775 94.175 75.225C94.475 74.625 94.625 73.825 94.625 72.825V33.675C94.625 32.675 94.475 31.875 94.175 31.275C93.875 30.675 93.225 30.2 92.225 29.85L90.65 29.25V28.5H109.775V29.25L108.425 29.85C107.475 30.2 106.825 30.7 106.475 31.35C106.125 31.95 105.95 32.75 105.95 33.75V76.5H117.5C119.35 76.5 120.7 76.05 121.55 75.15C122.45 74.25 123.3 72.95 124.1 71.25L127.025 64.95H127.775L127.1 78H90.65Z" fill="#6626CD"/>
<path d="M108.21 60.3523V59.8023L109.365 59.3623C110.135 59.069 110.612 58.7206 110.795 58.3173C111.015 57.8773 111.125 57.2906 111.125 56.5573V27.8473C111.125 27.114 111.015 26.5273 110.795 26.0873C110.575 25.6473 110.098 25.299 109.365 25.0423L108.21 24.6023V24.0523H122.235V24.6023L121.245 25.0423C120.548 25.299 120.072 25.6656 119.815 26.1423C119.558 26.5823 119.43 27.169 119.43 27.9023V59.2523H127.9C129.257 59.2523 130.247 58.9223 130.87 58.2623C131.53 57.6023 132.153 56.649 132.74 55.4023L134.885 50.7823H135.435L134.94 60.3523H108.21Z" fill="#6626CD"/>
</svg>
