<svg width="375" height="494" viewBox="0 0 375 494" fill="none" xmlns="http://www.w3.org/2000/svg">
<path d="M0.150001 493.55V0.749992H103.55V36.5H43.6V457.8H103.55V493.55H0.150001ZM285.536 0.749992C317.069 34.85 341.086 73.1667 357.586 115.7C374.086 157.867 382.336 201.5 382.336 246.6C382.336 291.333 374.086 334.967 357.586 377.5C341.086 420.033 317.069 458.167 285.536 491.9H254.186C269.219 469.533 282.786 444.967 294.886 418.2C306.986 391.433 316.519 363.567 323.486 334.6C330.819 305.267 334.486 275.933 334.486 246.6C334.486 216.9 330.819 187.567 323.486 158.6C316.519 129.267 306.986 101.217 294.886 74.45C282.786 47.6833 269.219 23.1167 254.186 0.749992H285.536Z" fill="url(#paint0_linear_6_25)"/>
<defs>
<linearGradient id="paint0_linear_6_25" x1="91.5" y1="-135" x2="46.6468" y2="584.312" gradientUnits="userSpaceOnUse">
<stop stop-color="#755F9A"/>
<stop offset="0.380208" stop-color="#7B4DC5" stop-opacity="0.578125"/>
<stop offset="1" stop-color="#8235FF" stop-opacity="0"/>
</linearGradient>
</defs>
</svg>
